<?xml version="1.0" standalone="no"?>
<!DOCTYPE svg PUBLIC "-//W3C//DTD SVG 20010904//EN"
 "http://www.w3.org/TR/2001/REC-SVG-20010904/DTD/svg10.dtd">
<svg version="1.0" xmlns="http://www.w3.org/2000/svg"
 width="626.000000pt" height="626.000000pt" viewBox="0 0 626.000000 626.000000"
 preserveAspectRatio="xMidYMid meet">

<g transform="translate(0.000000,626.000000) scale(0.100000,-0.100000)"
fill="#000000" stroke="none">
<path d="M1824 4316 c-41 -18 -64 -52 -64 -94 0 -65 10 -72 110 -72 l89 0 12
39 c26 87 -62 164 -147 127z"/>
<path d="M1624 4050 c-24 -41 -42 -81 -39 -87 2 -7 0 -12 -5 -10 -6 1 -26 -26
-46 -60 l-35 -63 205 0 206 0 0 130 0 130 35 0 c24 0 35 5 35 15 0 11 -28 15
-156 17 l-156 3 -44 -75z"/>
<path d="M975 4071 c-74 -34 -115 -102 -115 -191 l0 -50 140 0 140 0 45 77
c25 43 45 83 45 89 0 7 -16 26 -35 42 -60 53 -148 66 -220 33z"/>
<path d="M2424 3935 l-28 -145 -883 0 c-486 0 -883 -3 -883 -7 0 -26 153 -550
171 -584 53 -104 158 -179 280 -198 39 -7 279 -11 607 -11 605 0 563 6 521
-70 -12 -21 -38 -47 -59 -59 -37 -21 -48 -21 -506 -21 -297 0 -483 -4 -507
-11 -47 -13 -102 -60 -128 -110 -38 -76 -17 -191 47 -251 63 -59 55 -58 783
-58 743 0 711 -3 711 66 0 21 -8 42 -20 54 -20 20 -33 20 -689 20 -639 0 -670
1 -692 19 -28 23 -32 83 -6 109 16 16 60 17 510 22 474 5 494 6 538 26 62 29
116 79 144 134 16 32 53 197 126 562 l104 517 212 3 c178 3 215 6 228 19 22
22 22 75 0 99 -17 19 -31 20 -285 20 l-268 0 -28 -145z m-54 -268 c0 -2 -25
-126 -55 -277 -30 -151 -55 -275 -55 -277 0 -2 -269 -2 -597 -1 l-598 3 -54
31 c-30 17 -57 36 -59 42 -3 9 142 12 582 12 514 0 587 2 592 15 4 8 1 22 -6
30 -11 13 -94 15 -616 15 -671 0 -613 -6 -629 68 l-7 32 646 0 646 0 0 25 0
25 -653 0 -654 0 -11 39 c-24 80 -90 73 641 65 359 -4 666 -4 681 0 21 5 27
12 24 29 l-3 22 -689 5 -689 5 -13 45 c-8 25 -14 46 -14 48 0 1 358 2 795 2
437 0 795 -1 795 -3z"/>
<path d="M2820 3771 c0 -5 -25 -145 -56 -312 -80 -441 -85 -464 -103 -571
l-17 -98 131 0 c141 0 184 8 236 43 47 31 94 129 113 236 26 141 19 203 -28
244 l-21 17 28 21 c57 43 97 158 97 279 0 133 -27 150 -235 150 -80 0 -145 -4
-145 -9z m230 -116 c26 -32 -11 -233 -48 -262 -9 -7 -38 -13 -64 -13 -45 0
-48 2 -43 23 11 53 34 176 40 220 l7 47 48 0 c30 0 52 -5 60 -15z m-66 -401
c10 -9 16 -33 16 -58 0 -52 -34 -217 -52 -248 -7 -13 -11 -27 -10 -31 1 -5 -2
-6 -7 -3 -5 4 -12 2 -16 -4 -3 -5 -28 -10 -56 -10 -40 0 -49 3 -49 18 1 26 58
331 65 342 10 16 92 12 109 -6z"/>
<path d="M3297 3293 c-48 -268 -88 -491 -87 -495 0 -5 31 -8 68 -8 l68 0 23
123 c12 67 32 173 43 235 l21 112 43 0 c46 0 84 -25 84 -54 0 -8 -16 -103 -35
-212 -19 -108 -35 -198 -35 -200 0 -2 33 -4 74 -4 l73 0 6 58 c4 31 15 107 26
167 31 170 25 296 -13 282 -26 -10 -11 25 17 39 39 21 72 97 92 213 19 107 13
160 -20 199 l-23 27 -169 3 -168 3 -88 -488z m320 365 c19 -15 16 -92 -8 -178
-11 -41 -21 -80 -21 -86 -1 -12 -3 -13 -77 -20 l-53 -6 4 38 c12 96 42 250 52
262 11 16 81 9 103 -10z"/>
<path d="M4057 3773 c-3 -5 -44 -129 -92 -278 -48 -148 -118 -365 -156 -481
-38 -116 -69 -214 -69 -217 0 -4 30 -7 68 -7 l67 0 25 88 25 87 88 3 88 3 -7
-91 -7 -90 67 0 c36 0 66 1 66 3 2 17 30 870 30 920 l0 67 -94 0 c-52 0 -97
-3 -99 -7z m62 -418 c-6 -126 -12 -240 -15 -252 -4 -21 -10 -23 -75 -23 -57 0
-70 3 -66 14 3 8 38 119 77 247 71 231 79 253 85 247 2 -2 -1 -106 -6 -233z"/>
<path d="M4515 3758 c-7 -29 -123 -664 -136 -743 -5 -33 -16 -92 -24 -132 -8
-40 -15 -77 -15 -83 0 -6 26 -10 64 -10 62 0 65 1 70 28 10 50 75 426 87 505
6 42 15 77 18 77 3 0 29 -137 56 -305 l50 -305 53 0 c29 0 52 4 52 10 0 6 36
208 81 448 44 240 84 458 88 485 l8 47 -63 0 -62 0 -12 -52 c-20 -97 -69 -392
-76 -465 -3 -40 -11 -73 -15 -73 -5 0 -9 2 -9 4 0 8 -81 484 -91 534 l-10 52
-55 0 c-47 0 -54 -3 -59 -22z"/>
<path d="M5126 3763 c-5 -16 -26 -133 -141 -762 -19 -107 -35 -199 -35 -204 0
-5 62 -7 148 -5 117 3 154 7 180 21 18 10 30 22 27 26 -2 5 3 8 12 7 12 -1 29
22 55 74 38 75 62 185 133 599 24 141 6 213 -62 245 -26 12 -65 16 -173 16
-123 0 -139 -2 -144 -17z m227 -111 c26 -23 22 -71 -33 -372 -54 -294 -63
-332 -85 -350 -8 -7 -13 -15 -11 -19 2 -3 -22 -8 -55 -9 -32 -2 -59 -2 -59 0
1 21 140 760 145 768 9 14 75 2 98 -18z"/>
<path d="M2656 2601 c-32 -35 -19 -56 57 -85 26 -11 37 -21 37 -35 0 -26 -43
-38 -82 -23 -15 5 -28 7 -28 2 0 -23 101 -28 120 -6 25 31 8 60 -47 80 -38 13
-53 24 -53 37 0 27 35 43 71 30 29 -10 42 2 13 13 -31 12 -71 6 -88 -13z"/>
<path d="M2900 2552 c0 -86 16 -112 69 -112 62 0 75 17 79 104 3 51 1 76 -7
76 -7 0 -11 -25 -11 -69 0 -74 -14 -101 -51 -101 -49 0 -59 16 -59 95 0 43 -4
75 -10 75 -6 0 -10 -29 -10 -68z"/>
<path d="M3191 2530 c1 -49 5 -90 9 -90 5 0 10 12 12 28 3 25 7 27 50 30 35 2
52 9 63 25 21 30 19 44 -10 72 -19 20 -34 25 -75 25 l-50 0 1 -90z m117 58
c33 -33 -1 -78 -59 -78 l-39 0 0 45 0 45 43 0 c24 0 48 -5 55 -12z"/>
<path d="M3470 2530 l0 -90 68 2 67 1 -60 6 c-59 6 -60 7 -63 39 l-3 32 50 0
c28 0 51 5 51 10 0 6 -22 10 -50 10 -49 0 -50 1 -50 30 0 30 1 30 55 30 30 0
55 5 55 10 0 6 -27 10 -60 10 l-60 0 0 -90z"/>
<path d="M3731 2529 c1 -55 4 -81 8 -64 5 25 12 31 37 33 26 3 36 -3 54 -27
12 -17 26 -31 31 -31 6 0 1 13 -10 29 -20 28 -20 28 -1 46 23 21 26 53 6 80
-9 13 -30 20 -70 23 l-56 4 1 -93z m93 71 c20 -7 26 -17 26 -38 0 -39 -17 -52
-67 -52 l-43 0 2 45 c1 36 5 45 22 48 12 2 24 5 28 6 4 0 18 -3 32 -9z"/>
<path d="M4000 2530 c0 -107 18 -122 22 -19 l3 71 35 -60 c19 -33 38 -58 42
-56 4 2 22 30 40 62 l33 57 6 -75 5 -75 2 95 c2 106 0 106 -56 8 -15 -27 -30
-48 -34 -48 -3 0 -23 29 -43 65 -20 36 -40 65 -45 65 -6 0 -10 -40 -10 -90z"/>
<path d="M4357 2534 c-21 -47 -36 -88 -33 -91 3 -3 11 6 17 21 11 23 18 26 64
26 46 0 53 -3 64 -26 6 -15 14 -24 17 -21 7 7 -73 177 -83 177 -5 0 -25 -39
-46 -86z m52 -32 c-23 -2 -43 -1 -45 1 -3 3 5 26 18 52 l23 47 22 -49 23 -48
-41 -3z"/>
<path d="M4622 2528 c0 -51 3 -78 5 -60 4 28 8 32 35 32 23 0 39 -9 59 -32 16
-18 28 -28 29 -22 0 6 -7 17 -15 24 -19 16 -19 30 -1 44 51 40 9 106 -69 106
l-45 0 2 -92z m104 61 c20 -17 17 -57 -5 -69 -11 -5 -36 -10 -55 -10 -36 0
-36 0 -36 43 0 24 3 47 8 51 9 10 70 0 88 -15z"/>
<path d="M4890 2530 c0 -53 4 -90 10 -90 6 0 10 11 10 23 0 13 8 31 18 40 17
16 21 14 57 -23 47 -48 72 -54 29 -7 -62 66 -61 64 -19 107 22 22 35 40 30 40
-6 0 -34 -26 -62 -57 l-53 -58 0 58 c0 31 -4 57 -10 57 -6 0 -10 -37 -10 -90z"/>
<path d="M5160 2530 l0 -90 68 2 67 2 -57 3 -58 4 0 34 c0 35 0 35 45 35 25 0
45 5 45 10 0 6 -21 10 -46 10 -45 0 -45 0 -42 33 3 31 5 32 58 38 l55 6 -67 1
-68 2 0 -90z"/>
<path d="M5400 2610 c0 -5 14 -10 30 -10 l30 0 0 -80 c0 -47 4 -80 10 -80 6 0
10 35 10 86 l0 86 30 -4 c17 -3 30 -1 30 4 0 4 -31 8 -70 8 -40 0 -70 -4 -70
-10z"/>
<path d="M1205 2326 c-43 -18 -92 -78 -105 -127 -31 -114 66 -239 185 -239
119 0 216 125 185 239 -13 50 -63 109 -107 127 -41 17 -119 17 -158 0z"/>
<path d="M2145 2326 c-101 -45 -138 -180 -76 -277 80 -126 270 -112 332 26 58
126 -32 266 -170 265 -31 -1 -69 -7 -86 -14z"/>
</g>
</svg>
